<?xml version="1.0" encoding="UTF-8"?>
<svg version="1.1" xmlns="http://www.w3.org/2000/svg" width="512" height="512">
<path d="M0 0 C1.81685951 -0.00543404 3.6337146 -0.01256382 5.45056152 -0.02124023 C10.33879776 -0.03931905 15.22669253 -0.03247196 20.11493397 -0.01972389 C25.25336874 -0.00952168 30.39177635 -0.01900889 35.5302124 -0.02526855 C44.15105383 -0.03252146 52.77175764 -0.02301666 61.39257812 -0.00390625 C71.33741194 0.01788558 81.28191797 0.0107848 91.22674394 -0.01121187 C99.79532865 -0.02940025 108.36381507 -0.03190824 116.93241286 -0.0214572 C122.03715241 -0.0152447 127.14173813 -0.01432513 132.24646759 -0.02760315 C137.04346984 -0.03921222 141.84005154 -0.03104407 146.63700867 -0.00802612 C148.39008132 -0.00276714 150.14318978 -0.00420426 151.89624786 -0.01307678 C161.37098289 -0.05658631 169.69410298 0.29559628 178.39746094 4.51757812 C179.21956306 4.90921772 180.04166519 5.30085732 180.8886795 5.70436478 C189.99141374 10.29473266 196.9453342 18.48873742 204.03808594 25.62695312 C205.53341423 27.11958185 207.02933544 28.61161679 208.52581787 30.10308838 C211.64875168 33.22014912 214.76439857 36.3442666 217.875 39.47363281 C221.84448362 43.46590383 225.83165855 47.43994397 229.82449722 51.40884018 C232.91343093 54.48325688 235.99269706 57.56721515 239.06920624 60.65406036 C240.53496279 62.12246788 242.00364842 63.58795812 243.47541046 65.05034637 C255.95847123 77.47128835 266.73759956 89.66386093 266.93243456 108.24835944 C266.92351167 109.30333381 266.91458879 110.35830818 266.90539551 111.44525146 C266.91475545 113.17081689 266.91475545 113.17081689 266.92430449 114.93124223 C266.94017089 118.75938731 266.9276543 122.58689004 266.91503906 126.41503906 C266.91826403 129.17062685 266.9274436 131.92618796 266.9362793 134.6817627 C266.9540126 141.37432186 266.95024715 148.06670101 266.93862873 154.75926706 C266.92957114 160.20368495 266.92838045 165.64805262 266.932724 171.09247589 C266.93333693 171.86930653 266.93394986 172.64613717 266.93458137 173.44650812 C266.93586037 175.0249993 266.93715722 176.60349045 266.93847173 178.18198159 C266.94986312 192.96525261 266.93678808 207.74842423 266.91527027 222.53167894 C266.89741472 235.19011445 266.90049343 247.84840311 266.91894531 260.50683594 C266.94040199 275.23335886 266.94874979 289.95979466 266.93649626 304.68633103 C266.93522218 306.26002644 266.93396469 307.83372186 266.932724 309.4074173 C266.93179835 310.56860262 266.93179835 310.56860262 266.93085399 311.75324623 C266.92741439 317.18305056 266.93319959 322.61279921 266.94264221 328.04259491 C266.95391768 334.67166138 266.95070721 341.30053867 266.92951924 347.92958376 C266.91908031 351.30579119 266.91695303 354.68142681 266.92811584 358.05767059 C266.97834096 374.79905284 266.62726202 389.80012919 258.58496094 404.89257812 C258.24239258 405.55684814 257.89982422 406.22111816 257.546875 406.90551758 C254.71366725 412.25009634 251.35725528 416.94495846 247.39746094 421.51757812 C246.800625 422.31035156 246.20378906 423.103125 245.58886719 423.91992188 C233.95022733 437.71617055 214.89019347 446.98750398 197.03534889 448.75086212 C190.66847131 449.11833415 184.29583133 449.06273713 177.92089844 449.03515625 C175.79526289 449.04058755 173.66963111 449.04771582 171.54400635 449.05639648 C165.81257 449.07451283 160.08142414 449.06761083 154.34998322 449.05488014 C148.32722745 449.04469158 142.30449512 449.05416199 136.28173828 449.0604248 C126.17117895 449.06768423 116.06073682 449.05815833 105.95019531 449.0390625 C94.29225711 449.01729716 82.63459883 449.02434973 70.9766674 449.04636812 C60.93372657 449.06457078 50.89086957 449.0670567 40.84791756 449.05661345 C34.86444644 449.05040523 28.88110652 449.04946892 22.89764404 449.0627594 C17.27002735 449.07438829 11.64276851 449.06616437 6.01519012 449.04318237 C3.9606358 449.0379327 1.9060509 449.03934414 -0.14849091 449.04823303 C-15.07759827 449.10682521 -28.5409617 447.8658565 -41.97753906 440.70507812 C-42.64253418 440.36178467 -43.3075293 440.01849121 -43.99267578 439.66479492 C-49.3357785 436.83022481 -54.04408306 433.49505444 -58.60253906 429.51757812 C-59.570625 428.74542969 -60.53871094 427.97328125 -61.53613281 427.17773438 C-70.94814214 419.32112446 -77.54192171 407.96354541 -81.60253906 396.51757812 C-82.10256565 395.21312744 -82.10256565 395.21312744 -82.61269379 393.88232422 C-86.8941147 380.74271105 -86.17393686 367.11580372 -86.12543774 353.44998074 C-86.11630788 349.63803247 -86.13039589 345.82615494 -86.14135742 342.01422119 C-86.15906339 334.56555368 -86.15533823 327.11704817 -86.14370686 319.66837454 C-86.13464142 313.61001866 -86.13346192 307.5517079 -86.13780212 301.49334717 C-86.13841506 300.62824693 -86.13902799 299.76314669 -86.13965949 298.8718313 C-86.14093851 297.11392227 -86.14223536 295.35601325 -86.14354986 293.59810424 C-86.15493245 277.14760147 -86.1418785 260.69718814 -86.12034839 244.24670005 C-86.10247952 230.15791153 -86.10558429 216.06925489 -86.12402344 201.98046875 C-86.14547129 185.5853566 -86.15383403 169.19032266 -86.14157438 152.79519844 C-86.1403003 151.04406867 -86.13904282 149.29293888 -86.13780212 147.54180908 C-86.13718502 146.68041396 -86.13656792 145.81901883 -86.13593212 144.93152082 C-86.13249094 138.88651792 -86.13828086 132.84156498 -86.14772034 126.79656982 C-86.15898533 119.42101222 -86.15580633 112.04562471 -86.13459736 104.67008638 C-86.12414705 100.91318442 -86.11986098 97.15656515 -86.13319397 93.39966583 C-86.19016156 75.90112351 -86.21307916 59.94767974 -77.79003906 44.14257812 C-77.44674561 43.47758301 -77.10345215 42.81258789 -76.74975586 42.12744141 C-73.91518575 36.78433869 -70.58001538 32.07603413 -66.60253906 27.51757812 C-65.44431641 26.06544922 -65.44431641 26.06544922 -64.26269531 24.58398438 C-48.36355849 5.53724212 -23.59264448 -0.12001375 0 0 Z " fill="#D9DDDE" transform="translate(165.6025390625,31.482421875)"/>
<path d="M0 0 C1.03780189 -0.00935994 1.03780189 -0.00935994 2.09656948 -0.01890898 C4.39667929 -0.03476373 6.69571818 -0.0222655 8.99583435 -0.00964355 C10.65214146 -0.01506801 12.30844375 -0.02219248 13.96473694 -0.03088379 C18.45024035 -0.04908029 22.93537472 -0.04206525 27.42088437 -0.02936745 C32.1199448 -0.01922241 36.81897418 -0.02863714 41.51803589 -0.03491211 C49.40734008 -0.04218342 57.29649434 -0.03261363 65.18577576 -0.0135498 C74.3023541 0.0082255 83.41857469 0.00116074 92.53514439 -0.02085543 C100.36889122 -0.03901515 108.20253045 -0.04156518 116.03629154 -0.03110075 C120.71230905 -0.02486994 125.38815846 -0.024019 130.06416512 -0.0372467 C134.45970131 -0.0488132 138.85477672 -0.04076504 143.25026321 -0.01766968 C144.86191099 -0.01238716 146.47359764 -0.01388858 148.08522987 -0.02272034 C150.28813512 -0.03367808 152.48957081 -0.01991208 154.69238281 0 C155.92402444 0.0015081 157.15566607 0.0030162 158.42463017 0.00457001 C163.61506609 0.78260083 166.6838019 3.2605372 170.09519958 7.13293457 C173.40368732 11.78932472 173.40352581 15.90325334 172.78269958 21.50793457 C170.28935455 26.49462464 166.7891901 30.00468931 161.78269958 32.50793457 C159.57114758 32.61534131 157.35629086 32.65630876 155.14216614 32.66856384 C154.45189791 32.67365166 153.76162969 32.67873948 153.05044425 32.68398148 C150.72600927 32.69973928 148.40160546 32.70823984 146.07713318 32.7166748 C144.41496074 32.72621075 142.75279031 32.7361018 141.09062195 32.74632263 C135.62081772 32.77774347 130.15099813 32.79798124 124.68113708 32.81652832 C123.75070855 32.81982564 122.82028001 32.82312296 121.86165667 32.8265202 C113.08684885 32.85730723 104.31203764 32.88401636 95.53719139 32.90093899 C84.31252245 32.92283921 73.08833229 32.96478935 61.86385477 33.03437656 C53.97246227 33.08163794 46.08119883 33.10587557 38.18966925 33.11313587 C33.47645386 33.11808978 28.76377771 33.13314499 24.0507164 33.17288017 C19.61331044 33.20979684 15.17675053 33.21813996 10.73921967 33.20487404 C9.11386096 33.20492791 7.4884643 33.21519221 5.86324692 33.23662567 C-8.95536068 33.42154533 -8.95536068 33.42154533 -14.85143089 28.07669163 C-18.42962196 23.96699272 -19.8701432 20.10180122 -19.62745667 14.59387207 C-18.85015853 10.64075583 -16.98591629 7.40433272 -14.21730042 4.50793457 C-9.24190621 1.22596421 -6.0846459 0.00744816 0 0 Z " fill="#ACB1B2" transform="translate(179.21730041503906,271.4920654296875)"/>
<path d="M0 0 C1.02170632 -0.00551503 1.02170632 -0.00551503 2.06405318 -0.01114148 C4.34549503 -0.02215101 6.6268913 -0.02601745 8.90835571 -0.02983093 C10.54451135 -0.0360975 12.18066557 -0.04274447 13.81681824 -0.04974365 C19.18797825 -0.07075815 24.55913847 -0.0811415 29.93032837 -0.09111023 C31.78010701 -0.09515833 33.62988551 -0.09927527 35.47966385 -0.10346031 C44.16786594 -0.12250383 52.85605956 -0.13673835 61.5442785 -0.14507228 C71.57298774 -0.15485118 81.60147665 -0.18119119 91.63010824 -0.22157317 C99.38308665 -0.25172098 107.13600183 -0.26653977 114.88903773 -0.26985329 C119.5193088 -0.27220471 124.14934426 -0.28117742 128.77955246 -0.30631447 C133.13477575 -0.32957782 137.48960795 -0.33383552 141.84487724 -0.32355309 C143.44203046 -0.32305724 145.03920283 -0.32939211 146.63629723 -0.34310913 C148.81960471 -0.36081005 151.00150572 -0.35373256 153.18481445 -0.34057617 C154.40560385 -0.34296453 155.62639324 -0.34535288 156.88417625 -0.34781361 C162.06263701 0.42073018 165.13016002 2.91074682 168.53189087 6.77217102 C171.8403786 11.42856117 171.8402171 15.54248979 171.21939087 21.14717102 C169.00696648 25.5720198 166.27139471 28.34193759 162.21939087 31.14717102 C158.79366828 32.28907855 156.14888379 32.28463998 152.53453064 32.30107117 C151.8515751 32.30545342 151.16861955 32.30983567 150.46496838 32.31435072 C148.17127373 32.32772944 145.8776175 32.3339155 143.58389282 32.34004211 C141.94127733 32.34794387 140.29866357 32.35621286 138.65605164 32.36482239 C133.25660865 32.39103587 127.85715793 32.40635019 122.45767212 32.42060852 C120.59834475 32.42596864 118.73901744 32.43134615 116.87969017 32.43674088 C109.144485 32.45836935 101.4092819 32.47710544 93.67405415 32.48836327 C82.59216809 32.50459831 71.51063288 32.53776562 60.42887908 32.59476411 C52.63512745 32.63348259 44.84146957 32.65299826 37.04762429 32.65828383 C32.39374023 32.66193491 27.74023043 32.6739301 23.08645058 32.70638657 C18.70573242 32.73650054 14.32561432 32.7427673 9.94481468 32.73100281 C8.34043006 32.73078234 6.73601732 32.73906493 5.13172913 32.75665665 C-9.47684108 32.90807549 -9.47684108 32.90807549 -15.35889912 28.54389381 C-19.07860087 24.88956756 -20.59467839 21.44868619 -21.34310913 16.20967102 C-21.08022199 11.38381429 -18.84537659 7.78134883 -15.78060913 4.14717102 C-10.71854605 0.31975747 -6.2220361 0.02179425 0 0 Z " fill="#B2B8B9" transform="translate(180.78060913085938,207.8528289794922)"/>
<path d="M0 0 C11.51305688 -0.19541951 18.6904324 7.94025143 26.56938171 15.50724411 C30.78192682 19.59562392 34.94746688 23.73127813 39.109375 27.87109375 C40.09386501 28.84947047 40.09386501 28.84947047 41.09824371 29.84761238 C44.56402536 33.29269926 48.0266397 36.7409345 51.48681641 40.19165039 C55.03766999 43.7313996 58.60006356 47.25929856 62.16509628 50.78475857 C64.92917571 53.52259683 67.68424018 56.26937626 70.43701935 59.01857185 C71.7460427 60.32275855 73.05841102 61.62359764 74.37432098 62.92083549 C81.3019658 69.75614534 87.6385647 76.16076643 92 85 C92.33 85.66 92.66 86.32 93 87 C93.039992 88.99960012 93.04346799 91.00047242 93 93 C84.99310226 93.06994378 76.98633518 93.12303396 68.97920609 93.15543652 C65.25995229 93.17099914 61.54090966 93.19206198 57.82177734 93.22631836 C54.22316199 93.25925193 50.62474794 93.27692343 47.02599335 93.28463173 C45.00556287 93.29275785 42.98521179 93.31612094 40.96490479 93.33988953 C27.85876244 93.34224573 17.82444257 91.59273926 8.28515625 82.3359375 C1.44205224 75.00762563 -0.13324365 66.35533768 -0.11352539 56.53564453 C-0.11344986 55.27479034 -0.11337433 54.01393616 -0.11329651 52.71487427 C-0.10819109 51.3541866 -0.10297511 49.99349935 -0.09765625 48.6328125 C-0.09578912 47.22891287 -0.09436661 45.82501258 -0.09336853 44.42111206 C-0.08956658 40.74192478 -0.07975633 37.06277752 -0.06866455 33.38360596 C-0.05840031 29.62293031 -0.0538602 25.86224814 -0.04882812 22.1015625 C-0.03813179 14.73435683 -0.02108352 7.36718404 0 0 Z " fill="#ABB1B2" transform="translate(336,35)"/>
<path d="M0 0 C1.15935562 -0.00990463 2.31871124 -0.01980927 3.51319885 -0.03001404 C4.77619812 -0.02551239 6.03919739 -0.02101074 7.34046936 -0.01637268 C8.69106613 -0.02207822 10.04165807 -0.0290432 11.39224243 -0.03717041 C15.05345915 -0.05509712 18.71443614 -0.0539344 22.37568355 -0.04822803 C25.43482547 -0.04513537 28.4939214 -0.05122949 31.55305678 -0.05726677 C38.7712958 -0.07130885 45.98941647 -0.06975346 53.20765686 -0.05836487 C60.64849749 -0.04688432 68.08897766 -0.06095874 75.52977079 -0.08776134 C81.92399345 -0.1099297 88.31810305 -0.11655317 94.7123614 -0.11068493 C98.52882778 -0.10731678 102.34506313 -0.1097207 106.16149712 -0.12693596 C109.75101952 -0.1424213 113.34000866 -0.13843263 116.92951012 -0.11963081 C118.87016507 -0.11419733 120.81084406 -0.12844707 122.75144958 -0.14332581 C133.37905334 -0.05339678 133.37905334 -0.05339678 138.2000885 4.38768005 C142.59901954 9.38106123 143.55685188 12.29783233 143.4813385 18.84861755 C142.93025165 23.82370718 140.1931115 26.51287408 136.5750885 29.70018005 C133.01640515 32.22871823 131.17817218 32.51512375 126.84359741 32.52812195 C125.70663925 32.53383209 124.56968109 32.53954224 123.39826965 32.54542542 C122.14475708 32.54654327 120.89124451 32.54766113 119.5997467 32.54881287 C118.2842131 32.55377777 116.9686795 32.55874268 115.61328125 32.56385803 C111.99734303 32.57699287 108.38142338 32.58342956 104.76546502 32.58786869 C102.50569105 32.5907988 100.24592216 32.59490358 97.98615074 32.59937286 C90.91416138 32.61305314 83.84218363 32.62271614 76.77018195 32.62657475 C68.61037585 32.63105135 60.45073761 32.64857837 52.29098254 32.67757535 C45.98260128 32.69921343 39.67426716 32.70928023 33.3658492 32.71061587 C29.59907183 32.71166276 25.83245213 32.71754503 22.06571388 32.73543549 C18.51900962 32.75195216 14.97258091 32.75405442 11.42585182 32.74529648 C9.51039752 32.74416265 7.59495221 32.75785389 5.67955017 32.77204895 C-1.78074256 32.73595387 -7.2183862 32.38841747 -13.1124115 27.45018005 C-16.64562364 23.13180966 -17.3548032 19.49627104 -17.24913025 13.9931488 C-16.48035583 9.53425718 -14.04992294 6.44029384 -10.7999115 3.38768005 C-7.06372063 0.76164487 -4.5489957 0.01099577 0 0 Z " fill="#A6ACAD" transform="translate(176.79991149902344,335.61231994628906)"/>
<path d="M0 0 C0.66073013 -0.0065712 1.32146027 -0.0131424 2.00221252 -0.01991272 C4.18214039 -0.03957235 6.36199957 -0.05129249 8.54199219 -0.0612793 C9.28958549 -0.06535482 10.0371788 -0.06943035 10.80742645 -0.07362938 C14.76533224 -0.09445994 18.72320367 -0.10877404 22.68115234 -0.11816406 C26.75422084 -0.12921593 30.82674116 -0.16360977 34.89961624 -0.20333576 C38.04476894 -0.22956995 41.18979239 -0.23786193 44.33504486 -0.24144554 C45.83565722 -0.24629479 47.33626446 -0.25786114 48.8367691 -0.27648354 C56.87042036 -0.36998234 63.4767241 -0.44304955 70.33886719 4.17700195 C73.77841494 7.79293677 75.20300213 10.41075621 75.58886719 15.42700195 C75.21237268 21.0744195 73.67774819 25.28445616 69.40136719 29.05200195 C64.71226315 32.30566598 61.15821593 32.31056944 55.49414062 32.36987305 C54.47378471 32.38213928 54.47378471 32.38213928 53.43281555 32.39465332 C51.1879665 32.41940693 48.94318029 32.43599818 46.69824219 32.45043945 C45.54375454 32.45842497 45.54375454 32.45842497 44.36594391 32.46657181 C40.29133604 32.49326092 36.21675835 32.51264854 32.14208984 32.52709961 C28.78015889 32.54042996 25.41883617 32.56827096 22.05712891 32.60913086 C17.98701606 32.6585912 13.91745403 32.68323658 9.84705353 32.69032669 C8.30176015 32.69701552 6.75647794 32.71217568 5.21135712 32.7362175 C-10.68047469 32.96937018 -10.68047469 32.96937018 -16.66113281 27.17700195 C-20.00987014 23.29781211 -20.96287982 20.26741235 -20.66113281 15.11450195 C-19.98055803 10.6363199 -18.69525924 7.63253483 -15.66113281 4.17700195 C-10.53222528 0.45854399 -6.23363878 0.05144786 0 0 Z " fill="#BDC2C3" transform="translate(180.6611328125,143.822998046875)"/>
</svg>
